<svg width="96" height="96" xmlns="http://www.w3.org/2000/svg" xmlns:xlink="http://www.w3.org/1999/xlink" xml:space="preserve" overflow="hidden"><defs><clipPath id="clip0"><rect x="0" y="0" width="96" height="96"/></clipPath></defs><g clip-path="url(#clip0)"><path d="M59.539 69 59.539 55.371 45.789 42.31 32.039 55.372 32.039 69 43.039 69 43.039 57.542 48.539 57.542 48.539 69 59.539 69Z"/><path d="M93.446 16.834 90.166 13.554C89.4553 12.8269 88.2897 12.8137 87.5626 13.5244 87.5526 13.5342 87.5428 13.544 87.533 13.554L84.251 16.837 90.117 22.7 93.4 19.421C94.126 18.7829 94.1972 17.6772 93.5592 16.9512 93.5233 16.9104 93.4855 16.8713 93.446 16.834Z"/><path d="M88.749 24.163 82.837 18.251 59.91 41.223 57.91 47.257 45.832 35.727 45.832 35.727 27.042 53.6 29.123 55.378 45.831 39.509 45.831 39.509 56.955 50.045 57.725 49.761 65.825 47.09ZM64.849 45.473 60.923 46.766 60.23 46.074 61.523 42.147C62.4614 41.2596 63.9355 41.28 64.849 42.193 65.7558 43.0722 65.7782 44.5201 64.899 45.4269 64.8839 45.4425 64.8685 45.4579 64.853 45.473Z"/><path d="M69 76 12 76C10.8954 76 10 75.1046 10 74 10 72.8954 10.8954 72 12 72L22 72 22 30 66.874 30 72.862 24 22 24 22 14 12 14C7.58378 14.005 4.00496 17.5838 4 22L4 74C4.00496 78.4162 7.58378 81.995 12 82L75 82 75 42.155 69 48.155ZM10 22C10 20.8954 10.8954 20 12 20L16 20 16 66 12 66C11.3253 65.9997 10.6533 66.0847 10 66.253Z"/></g></svg>