<svg width="96" height="96" xmlns="http://www.w3.org/2000/svg" xmlns:xlink="http://www.w3.org/1999/xlink" xml:space="preserve" overflow="hidden"><defs><clipPath id="clip0"><rect x="0" y="0" width="96" height="96"/></clipPath></defs><g clip-path="url(#clip0)"><path d="M86.5 34.3C86 32.8 84.8 31.5 83.3 30.9 81.6 30.2 79.8 29.9 78 30 72.1 30 64.3 32.3 59.3 34 59.3 33.9 59.2 33.8 59.2 33.6 60.5 31.8 61.4 29.8 62.1 27.8 63.5 24.1 64.4 22 67.4 22 68 22 68.4 21.6 68.4 21 68.4 20.4 68 20 67.4 20 62.8 20 61.5 23.6 60.2 27.1 59.7 28.7 59 30.3 58.1 31.7 57.5 30.9 56.8 30.2 56 29.5 57.1 28.6 57.8 27.3 57.9 25.9 57.9 23.7 56.1 21.9 53.4 20.8L55.7 16.2C55.9 15.7 55.7 15.1 55.3 14.9 54.8 14.7 54.2 14.9 54 15.3L51.6 20.2C49.5 19.8 47.3 19.8 45.2 20.2L42.8 15.3C42.6 14.8 41.9 14.6 41.5 14.9 41 15.1 40.8 15.8 41.1 16.2L43.4 20.8C40.7 21.9 38.9 23.7 38.9 25.9 39 27.3 39.6 28.6 40.8 29.5 40 30.1 39.3 30.8 38.7 31.6 37.8 30.1 37.1 28.6 36.6 27 34.9 23.6 33.6 20 29 20 28.4 20 28 20.4 28 21 28 21.6 28.4 22 29 22 32 22 32.9 24.1 34.3 27.8 34.9 29.9 35.9 31.8 37.2 33.6 37.1 33.7 37.1 33.9 37 34 32 32.3 24.2 30 18.3 30 16.5 29.9 14.7 30.2 13 30.9 11.5 31.5 10.4 32.8 9.8 34.3 8.2 39.3 10.7 46.1 15.7 50.3 18.8 52.9 22.7 54.4 26.7 54.4L26.8 54.4C29.7 54.4 32.6 53.8 35.2 52.6 35.1 53.3 35.1 54.1 35.1 54.9 35.1 55.6 35.1 56.2 35.2 56.9L30.7 56.9 23.4 64.2C23 64.6 23 65.2 23.3 65.6 23.7 66 24.3 66 24.7 65.7 24.7 65.7 24.7 65.7 24.8 65.6L31.5 58.9 35.4 58.9C35.7 60.9 36.2 62.8 36.8 64.7 35.9 69.2 33.1 72.9 28.4 76 27.9 76.3 27.8 76.9 28.1 77.4 28.3 77.7 28.6 77.8 28.9 77.8 29.1 77.8 29.3 77.7 29.5 77.6 33.3 75.3 36.2 71.8 37.9 67.7 40.7 74.4 45 79.9 47.9 81.8 50.8 79.9 55.1 74.4 57.9 67.7 59.6 71.8 62.5 75.3 66.3 77.6 66.8 77.9 67.4 77.8 67.7 77.3 68 76.8 67.9 76.2 67.4 75.9 67.4 75.9 67.4 75.9 67.4 75.9 62.7 72.8 60 69 59 64.6 59.6 62.7 60.1 60.7 60.4 58.8L64.3 58.8 71 65.5C71.4 65.9 72 65.8 72.4 65.4 72.8 65 72.8 64.4 72.4 64L65.6 57 61.1 57C61.2 56.3 61.2 55.7 61.2 55 61.2 54.2 61.2 53.4 61.1 52.7 63.8 53.8 66.6 54.4 69.5 54.5L69.6 54.5C73.6 54.5 77.6 53.1 80.6 50.4 85.6 46.2 88.1 39.3 86.5 34.3ZM48.2 22C52.8 22 55.8 24.1 55.8 26 55.8 27.9 52.7 30 48.2 30 43.7 30 40.6 27.9 40.6 26 40.6 24.1 43.6 22 48.2 22ZM42.2 30.7C46 32.4 50.3 32.4 54.1 30.7 56.5 32.1 57.9 34.7 58 37.5 58 42.2 53.6 46 48.2 46 42.8 46 38.4 42.2 38.4 37.5 38.4 34.7 39.9 32.2 42.2 30.7ZM56.7 44.8C58.1 47.2 59 49.8 59.1 52.6 56.6 54.1 52.6 55 48.2 55 43.9 55 39.8 54.1 37.3 52.6 37.4 49.8 38.3 47.2 39.7 44.8 44.6 49.1 51.8 49.1 56.7 44.8ZM35.6 50.3 35.3 50.4C32.6 51.6 29.8 52.3 26.8 52.4L26.7 52.4C23.1 52.4 19.7 51.1 17 48.8 12.7 45.2 10.4 39.1 11.8 35 12.1 34 12.9 33.2 13.9 32.8L13.9 32.8 13.9 32.8C15.3 32.2 16.8 32 18.3 32.1 24.1 32.1 31.8 34.4 36.5 36 36.4 36.5 36.4 37 36.4 37.5 36.4 39.6 37.1 41.7 38.4 43.3 36.9 45.4 36 47.8 35.6 50.3ZM48.2 79.5C46.1 77.5 44.3 75.2 42.8 72.6 46.4 73.1 50 73.1 53.6 72.6 52.2 75.1 50.3 77.5 48.2 79.5ZM54.9 70.3C50.5 71.2 46 71.2 41.6 70.4 40.5 68.2 39.5 66 38.8 63.7 41.9 64.6 45.2 65.1 48.5 65.1 51.6 65.1 54.8 64.7 57.8 63.8 56.9 66 56 68.2 54.9 70.3ZM58.3 61.4C55.1 62.5 51.7 63 48.3 63 44.8 63.1 41.3 62.5 38 61.3 37.5 59.2 37.2 57.1 37.2 55 37.2 54.9 37.2 54.9 37.2 54.8 40.7 56.3 44.4 57.1 48.2 57 52 57.1 55.7 56.4 59.2 54.8 59.2 54.9 59.2 54.9 59.2 55 59.1 57.2 58.9 59.3 58.3 61.4ZM79.3 48.8C76.6 51.1 73.1 52.4 69.6 52.4L69.5 52.4C66.6 52.4 63.7 51.7 61 50.4L60.7 50.3C60.3 47.8 59.4 45.4 58 43.3 59.3 41.6 60 39.6 60 37.5 60 37 59.9 36.5 59.9 36 64.6 34.4 72.3 32.1 78.1 32.1 79.6 32 81.1 32.3 82.5 32.8L82.5 32.8 82.5 32.8C83.5 33.2 84.2 34 84.5 35 86 39.1 83.7 45.2 79.3 48.8Z"/></g></svg>