<svg width="96" height="96" xmlns="http://www.w3.org/2000/svg" xmlns:xlink="http://www.w3.org/1999/xlink" xml:space="preserve" overflow="hidden"><defs><clipPath id="clip0"><rect x="0" y="0" width="96" height="96"/></clipPath></defs><g clip-path="url(#clip0)"><path d="M51.16 63.52C51.1261 64.7978 51.415 66.0635 52 67.2 56.6312 65.228 59.333 60.3639 58.56 55.39 57.2971 55.512 56.0791 55.9225 55 56.59 55.0647 57.1582 55.0647 57.7318 55 58.3 54.6106 60.5464 53.1886 62.4795 51.16 63.52Z"/><path d="M36.7 55.27C35.8564 60.4577 38.7836 65.5218 43.7 67.38 43.7328 67.3113 43.7695 67.2445 43.81 67.18 44.3421 66.1263 44.6389 64.9697 44.68 63.79 42.5964 62.8985 41.0524 61.0804 40.51 58.88L40.54 58.88C40.2856 58.0178 40.2041 57.1138 40.3 56.22 39.189 55.6308 37.9571 55.3058 36.7 55.27Z"/><path d="M42.35 49.68C42.8133 50.1118 43.3231 50.4908 43.87 50.81 46.3311 49.2546 49.4855 49.3295 51.87 51 52.9853 50.3971 53.9495 49.5492 54.69 48.52 50.7759 45.2921 45.1617 45.1599 41.1 48.2 41.4605 48.7382 41.8797 49.2346 42.35 49.68Z"/><path d="M53.62 70.73C50.5245 68.2923 49.3396 64.1452 50.68 60.44L49.9 60C48.6659 60.8439 47.0274 60.7913 45.85 59.87L45.21 60.23C45.6058 61.2919 45.8057 62.4168 45.8 63.55 45.7916 64.9665 45.449 66.3609 44.8 67.62 44.1758 68.8829 43.2607 69.9796 42.13 70.82 40.4793 72.0806 38.4462 72.7371 36.37 72.68 34.4016 72.6425 32.4961 71.9799 30.9291 70.7879 30.8521 70.7293 30.8462 70.7359 30.916 70.8031 32.7922 72.6091 35.2049 73.7558 37.79 74.07 41.5174 74.552 45.2597 73.2947 47.94 70.66 50.0873 72.7825 52.9273 74.0605 55.94 74.26L57.34 74.26C58.7773 74.1489 60.188 73.8114 61.52 73.26 62.7674 72.7051 63.9215 71.9605 64.9412 71.0527 64.9733 71.024 64.9684 71.0161 64.93 71.0356 63.94 71.5501 62.9183 72.001 61.871 72.3856 59.0158 73.226 55.9299 72.6068 53.62 70.73Z"/><path d="M68.55 59.5C67.7139 55.2376 64.6626 51.7477 60.55 50.35 60.3 50.26 60.05 50.19 59.8 50.11 61.4994 43.7019 57.8231 37.0981 51.4811 35.1665 51.3763 35.1346 51.3734 35.1429 51.4744 35.1855 56.1812 37.1716 58.3867 42.5972 56.4006 47.304 55.1613 50.2409 52.4971 52.3328 49.35 52.84L49.35 54.12C50.561 54.689 51.3386 55.902 51.35 57.24L51.35 57.48 52.09 57.89C54.5508 54.7641 58.7317 53.5569 62.48 54.89 64.2417 55.5139 65.7655 56.6708 66.84 58.2 67.7378 59.4723 68.3064 60.9473 68.4949 62.4931 68.557 63.0693 68.571 63.6497 68.5367 64.2283 68.5359 64.2338 68.5397 64.239 68.5452 64.2398 68.5507 64.2406 68.5559 64.2368 68.5567 64.2313 68.6746 63.7214 68.7493 63.2025 68.78 62.68 68.8189 62.125 68.805 61.53 68.805 61.53 68.805 61.53 68.795 61.3 68.78 61.04 68.7377 60.5221 68.6608 60.0076 68.55 59.5Z"/><path d="M38.45 54.48C40.4795 54.9084 42.2988 56.0247 43.6 57.64L44.44 57.17C44.4614 55.84 45.237 54.6377 46.44 54.07L46.44 52.8C44.6308 52.5011 42.9561 51.6568 41.64 50.38 40.0694 48.9514 39.0828 46.9924 38.87 44.88 38.4427 40.29 40.4836 37.1208 44.4335 35.1872 44.4793 35.1648 44.4767 35.1572 44.4272 35.1689 43.2117 35.5126 42.0621 36.0567 41.0258 36.7789 40.184 37.349 39.425 38.0325 38.77 38.81 36.071 41.862 35.0631 46.0547 36.08 50 31.4854 51.2185 28.0092 54.9831 27.16 59.66 27.06 60.17 26.98 60.86 26.95 61.17 26.9072 61.6657 26.9072 62.1643 26.95 62.66 26.9743 62.8751 26.99 63.01 27.04 63.32 27.11 63.8047 27.1965 64.2817 27.2776 64.7646 27.2948 64.8667 27.3036 64.866 27.2976 64.7626 27.2753 64.3947 27.234 63.5935 27.2599 63.0649 27.5103 57.964 31.8484 54.0319 36.9492 54.2823 37.4541 54.3071 37.956 54.3732 38.45 54.48Z"/><path d="M51.41 12C50.3111 10.0836 47.8667 9.42084 45.9503 10.5197 45.3342 10.873 44.8233 11.3839 44.47 12L5.38 80C4.27543 81.9132 4.93093 84.3595 6.8441 85.4641 7.45209 85.8151 8.14176 85.9999 8.8438 86L87.0264 86C89.2355 85.9997 91.0262 84.2086 91.0259 81.9995 91.0258 81.2975 90.841 80.6079 90.49 80ZM87 84 8.8438 84C7.73923 83.9999 6.84386 83.1044 6.84394 81.9999 6.84397 81.6475 6.93706 81.3015 7.1138 80.9967L46.205 12.9949C46.3817 12.687 46.6371 12.4316 46.945 12.2549 47.2461 12.0803 47.5881 11.9886 47.9362 11.9892 48.6546 11.9898 49.3181 12.3739 49.6762 12.9967L88.7579 81C89.3103 81.9565 88.9826 83.1797 88.0261 83.7321 87.7144 83.9121 87.3599 84.0047 87 84Z"/></g></svg>