<svg width="96" height="96" xmlns="http://www.w3.org/2000/svg" xmlns:xlink="http://www.w3.org/1999/xlink" xml:space="preserve" overflow="hidden"><defs><clipPath id="clip0"><rect x="0" y="0" width="96" height="96"/></clipPath></defs><g clip-path="url(#clip0)"><path d="M29.5 36.711C28.2346 37.2633 27.6564 38.7368 28.2087 40.0023 28.761 41.2677 30.2346 41.8459 31.5 41.2936 32.7654 40.7413 33.3436 39.2677 32.7913 38.0023 32.5391 37.4244 32.0779 36.9632 31.5 36.711L31.5 30.008 27.5 30.008 27.5 26.288C28.7654 25.7357 29.3436 24.2622 28.7913 22.9967 28.239 21.7313 26.7654 21.1531 25.5 21.7054 24.2346 22.2577 23.6564 23.7313 24.2087 24.9967 24.4609 25.5746 24.9221 26.0358 25.5 26.288L25.5 30.007 20.318 30C20.126 30.535 19.983 31.07 19.833 31.633 19.801 31.755 19.767 31.878 19.733 32L29.5 32.009Z"/><path d="M81 51.014 74.1 39.014 74.1 38.514C74.6878 21.9183 61.7108 7.98833 45.1152 7.40053 45.1101 7.40035 45.105 7.40018 45.1 7.4 44.728 7.38733 44.3577 7.38067 43.989 7.38 27.8298 7.36576 14.5665 20.1607 14 36.31L14 38.51C13.961 47.9739 18.3211 56.9187 25.8 62.718L25.8 88.025 57.4 88.025 57.4 76.025 62.3 76.025C68.8115 76.0118 74.0868 70.7365 74.1 64.225L74.1 58.025 78.5 58.025C81.1 57.716 83.4 54.715 81 51.014ZM79.828 54.914C79.5447 55.4943 79.0002 55.9034 78.364 56.014L72.1 56.014 72.1 64.214C72.0923 69.6232 67.7092 74.0063 62.3 74.014L55.4 74.014 55.4 86.014 27.8 86.014 27.8 61.736 27.024 61.136C20.0226 55.7257 15.946 47.359 16 38.511L16 36.347C16.5122 21.2722 28.9076 9.33115 43.991 9.382 44.3357 9.382 44.682 9.38833 45.03 9.401 60.5172 9.96062 72.629 22.9506 72.105 38.439L72.105 39.545 72.371 40.008 79.271 52.008 79.298 52.054 79.327 52.099C79.9768 52.8837 80.1684 53.9513 79.832 54.913Z"/><path d="M58.5 21.5C58.2084 21.5025 57.9196 21.5567 57.647 21.66L54.5 18.828 54.5 14.4C53.84 14.137 53.168 13.873 52.5 13.647L52.5 19.679 56.2 23.012C55.6543 24.2803 56.2402 25.7508 57.5085 26.2965 58.7768 26.8421 60.2473 26.2563 60.793 24.988 61.3386 23.7197 60.7528 22.2492 59.4845 21.7035 59.1735 21.5697 58.8386 21.5005 58.5 21.5Z"/><path d="M47.5 41.5C47.1739 41.5003 46.8511 41.5649 46.55 41.69L39.5 34.616 39.5 23.006 45.5 23.006 45.5 27.706C44.2346 28.2583 43.6564 29.7318 44.2087 30.9973 44.761 32.2627 46.2346 32.8409 47.5 32.2886 48.7654 31.7363 49.3436 30.2627 48.7913 28.9973 48.5391 28.4194 48.0779 27.9582 47.5 27.706L47.5 21.005 39.5 21.005 39.5 18.287C40.7654 17.7347 41.3436 16.2612 40.7913 14.9957 40.239 13.7303 38.7654 13.1521 37.5 13.7044 36.2346 14.2567 35.6564 15.7303 36.2087 16.9957 36.4609 17.5736 36.9221 18.0348 37.5 18.287L37.5 35.407 40.8 38.816 35.5 44.116 35.5 49.01 29.469 49.01 25.613 44.481C26.2153 43.1958 25.6617 41.6656 24.3764 41.0633 23.0912 40.461 21.561 41.0146 20.9587 42.2998 20.3564 43.5851 20.9101 45.1152 22.1953 45.7176 22.7866 45.9946 23.4611 46.0363 24.082 45.834L28.532 51.011 35.5 51.011 35.5 52.711C34.2346 53.2633 33.6564 54.7368 34.2087 56.0023 34.761 57.2677 36.2346 57.8459 37.5 57.2936 38.7654 56.7413 39.3436 55.2677 38.7913 54.0023 38.5391 53.4244 38.0779 52.9632 37.5 52.711L37.5 44.905 42.2 40.205 45.149 43.175C44.6967 44.476 45.3847 45.8974 46.6857 46.3497 47.9867 46.802 49.4081 46.114 49.8604 44.813 50.3127 43.512 49.6247 42.0906 48.3237 41.6383 48.0588 41.5462 47.7804 41.4995 47.5 41.5Z"/></g></svg>